<svg width="40px" viewBox="0 0 196 82" style="fill-rule:evenodd;clip-rule:evenodd;stroke-linecap:round;stroke-linejoin:round;stroke-miterlimit:1.5;">
  <g><path d="M59.213,11.525c16.185,10.135 21.096,31.504 10.961,47.688c-10.136,16.185 -31.504,21.096 -47.689,10.961c-16.185,-10.136 -21.096,-31.504 -10.96,-47.689c10.135,-16.185 31.504,-21.096 47.688,-10.96Z" style="fill:#333;stroke:#fff;stroke-width:12.5px;"/>
    <path d="M172.917,11.525c16.184,10.135 21.096,31.504 10.96,47.688c-10.135,16.185 -31.504,21.096 -47.689,10.961c-16.184,-10.136 -21.096,-31.504 -10.96,-47.689c10.135,-16.185 31.504,-21.096 47.689,-10.96Z" style="fill:#333;stroke:#fff;stroke-width:12.5px;"/>
    <path d="M116.065,11.525c16.185,10.135 21.096,31.504 10.96,47.688c-10.135,16.185 -31.504,21.096 -47.688,10.961c-16.185,-10.136 -21.096,-31.504 -10.961,-47.689c10.136,-16.185 31.504,-21.096 47.689,-10.96Z" style="fill:#333;stroke:#fff;stroke-width:12.5px;"/>
  </g>
</svg>