<?xml version="1.0" encoding="UTF-8" standalone="no"?><!DOCTYPE svg PUBLIC "-//W3C//DTD SVG 1.1//EN" "http://www.w3.org/Graphics/SVG/1.1/DTD/svg11.dtd"><svg width="100%" height="100%" viewBox="0 0 343 328" version="1.1" xmlns="http://www.w3.org/2000/svg" xmlns:xlink="http://www.w3.org/1999/xlink" xml:space="preserve" style="fill-rule:evenodd;clip-rule:evenodd;stroke-linecap:round;stroke-linejoin:round;stroke-miterlimit:1.5;"><g><circle cx="154.562" cy="145.157" r="141.667" style="fill:none;"/><g transform="matrix(-2.6425,-3.22154,3.22154,-2.6425,1043.11,1760.57)"><g transform="matrix(0.984888,-0.173195,0.173195,0.984888,-2.74879,74.6432)"><text x="426.346px" y="53.073px" style="font-family:'Arial-BoldMT', 'Arial', sans-serif;font-weight:700;font-size:11px;">V</text></g><g transform="matrix(0.999997,-0.00237663,0.00237663,0.999997,-0.122369,1.03014)"><text x="433.386px" y="52.004px" style="font-family:'Arial-BoldMT', 'Arial', sans-serif;font-weight:700;font-size:11px;">i</text></g><g transform="matrix(0.986325,0.164811,-0.164811,0.986325,14.5126,-71.2268)"><text x="436.474px" y="51.84px" style="font-family:'Arial-BoldMT', 'Arial', sans-serif;font-weight:700;font-size:11px;">n</text></g><g transform="matrix(0.9215,0.388378,-0.388378,0.9215,55.3494,-167.943)"><text x="443.125px" y="52.949px" style="font-family:'Arial-BoldMT', 'Arial', sans-serif;font-weight:700;font-size:11px;">o</text></g><g transform="matrix(0.837257,0.54681,-0.54681,0.837257,103.57,-236.608)"><text x="449.281px" y="55.692px" style="font-family:'Arial-BoldMT', 'Arial', sans-serif;font-weight:700;font-size:11px;">t</text></g><g transform="matrix(0.735965,0.67702,-0.67702,0.735965,158.457,-291.075)"><text x="452.405px" y="57.614px" style="font-family:'Arial-BoldMT', 'Arial', sans-serif;font-weight:700;font-size:11px;">é</text></g><g transform="matrix(0.568612,0.822606,-0.822606,0.568612,247.932,-349.249)"><text x="456.954px" y="61.764px" style="font-family:'Arial-BoldMT', 'Arial', sans-serif;font-weight:700;font-size:11px;">k</text></g><g transform="matrix(0.393311,0.919406,-0.919406,0.393311,340.771,-382.835)"><text x="460.469px" y="66.793px" style="font-family:'Arial-BoldMT', 'Arial', sans-serif;font-weight:700;font-size:11px;">a</text></g><g transform="matrix(0.0759706,0.99711,-0.99711,0.0759706,503.646,-392.623)"><text x="463.661px" y="75.428px" style="font-family:'Arial-BoldMT', 'Arial', sans-serif;font-weight:700;font-size:11px;">u</text></g><g transform="matrix(-0.235029,0.971988,-0.971988,-0.235029,655.651,-345.61)"><text x="463.826px" y="85.199px" style="font-family:'Arial-BoldMT', 'Arial', sans-serif;font-weight:700;font-size:11px;">J</text></g><g transform="matrix(-0.445917,0.895074,-0.895074,-0.445917,750.101,-282.027)"><text x="462.343px" y="91.156px" style="font-family:'Arial-BoldMT', 'Arial', sans-serif;font-weight:700;font-size:11px;">a</text></g><g transform="matrix(-0.631383,0.775471,-0.775471,-0.631383,824.801,-198.724)"><text x="459.632px" y="96.671px" style="font-family:'Arial-BoldMT', 'Arial', sans-serif;font-weight:700;font-size:11px;">n</text></g><g transform="matrix(-0.785273,0.61915,-0.61915,-0.785273,875.995,-100.036)"><text x="455.344px" y="101.884px" style="font-family:'Arial-BoldMT', 'Arial', sans-serif;font-weight:700;font-size:11px;">a</text></g><g transform="matrix(-0.944391,0.328823,-0.328823,-0.944391,906.807,60.8403)"><text x="448.259px" y="107.097px" style="font-family:'Arial-BoldMT', 'Arial', sans-serif;font-weight:700;font-size:11px;">A</text></g><g transform="matrix(-0.999593,0.0285323,-0.0285323,-0.999593,884.376,207.079)"><text x="440.711px" y="109.849px" style="font-family:'Arial-BoldMT', 'Arial', sans-serif;font-weight:700;font-size:11px;">m</text></g><g transform="matrix(-0.967222,-0.253931,0.253931,-0.967222,819.764,325.639)"><text x="430.899px" y="109.912px" style="font-family:'Arial-BoldMT', 'Arial', sans-serif;font-weight:700;font-size:11px;">o</text></g><g transform="matrix(-0.889935,-0.456088,0.456088,-0.889935,752.764,397.977)"><text x="424.403px" y="108.158px" style="font-family:'Arial-BoldMT', 'Arial', sans-serif;font-weight:700;font-size:11px;">s</text></g><g transform="matrix(-0.772637,-0.634848,0.634848,-0.772637,675.755,452.672)"><text x="418.937px" y="105.329px" style="font-family:'Arial-BoldMT', 'Arial', sans-serif;font-weight:700;font-size:11px;">e</text></g></g><g><path d="M116.999,254.073c13.001,11.163 14.494,30.782 3.33,43.784c-11.163,13.001 -30.782,14.494 -43.783,3.33c-13.002,-11.163 -14.495,-30.782 -3.331,-43.783c11.163,-13.002 30.782,-14.495 43.784,-3.331Z" style="fill:#333;stroke:#fff;stroke-width:12.5px;"/><path d="M167.35,266.469c13.002,11.163 14.494,30.782 3.331,43.784c-11.164,13.002 -30.783,14.494 -43.784,3.331c-13.002,-11.164 -14.494,-30.783 -3.331,-43.784c11.163,-13.002 30.782,-14.494 43.784,-3.331Z" style="fill:#333;stroke:#fff;stroke-width:12.5px;"/><path d="M145.26,226.469c13.001,11.163 14.494,30.782 3.33,43.784c-11.163,13.001 -30.782,14.494 -43.784,3.33c-13.001,-11.163 -14.494,-30.782 -3.33,-43.784c11.163,-13.001 30.782,-14.494 43.784,-3.33Z" style="fill:#333;stroke:#fff;stroke-width:12.5px;"/><path d="M215.982,262.736c13.001,11.164 14.494,30.783 3.33,43.784c-11.163,13.002 -30.782,14.494 -43.784,3.331c-13.001,-11.163 -14.494,-30.782 -3.33,-43.784c11.163,-13.002 30.782,-14.494 43.784,-3.331Z" style="fill:#333;stroke:#fff;stroke-width:12.5px;"/><path d="M170.849,183.466c13.002,11.164 14.494,30.782 3.331,43.784c-11.163,13.002 -30.782,14.494 -43.784,3.331c-13.002,-11.164 -14.494,-30.783 -3.331,-43.784c11.164,-13.002 30.783,-14.494 43.784,-3.331Z" style="fill:#333;stroke:#fff;stroke-width:12.5px;"/><path d="M190.72,149.312c12.536,10.764 13.975,29.68 3.211,42.216c-10.763,12.536 -29.68,13.975 -42.216,3.212c-12.536,-10.764 -13.975,-29.68 -3.211,-42.216c10.763,-12.536 29.68,-13.975 42.216,-3.212Z" style="fill:#333;stroke:#fff;stroke-width:12.5px;"/><path d="M262.005,240.368c12.536,10.764 13.975,29.68 3.211,42.216c-10.764,12.536 -29.68,13.975 -42.216,3.211c-12.536,-10.763 -13.975,-29.68 -3.211,-42.216c10.763,-12.536 29.68,-13.975 42.216,-3.211Z" style="fill:#333;stroke:#fff;stroke-width:12.5px;"/><path d="M199.348,216.75c13.002,11.164 14.494,30.782 3.331,43.784c-11.163,13.002 -30.782,14.494 -43.784,3.331c-13.002,-11.164 -14.494,-30.783 -3.331,-43.784c11.164,-13.002 30.783,-14.494 43.784,-3.331Z" style="fill:#333;stroke:#fff;stroke-width:12.5px;"/><path d="M239.916,189.961c0,0 9.074,-12.383 10.569,-11.949c1.495,0.435 12.453,0.694 12.744,3.781c0.291,3.087 -19.267,12.46 -0.107,35.493c2.002,2.406 -2.086,-15.774 3.62,-11.881c3.17,2.163 -0.299,26.627 23.804,32.22c9.185,2.132 -3.97,-1.618 -1.478,-10.437c2.492,-8.819 8.52,-8.861 7.753,-15.615c-0.766,-6.755 3.561,16.068 18.793,13.715c4.195,-0.648 -4.61,-3.71 1.67,-5.484c2.905,-0.82 24.183,0.724 24.183,-0.654c-0,-19.812 -12.813,-17.02 -12.418,-20.735c0.69,-6.489 5.436,-0.46 3.735,-4.349c-6.177,-14.12 -27.764,-5.543 -21.651,-8.516c6.114,-2.972 2.918,-8.083 9.028,-14.914c6.11,-6.83 16.326,2.267 9.604,-4.346c-17.639,-17.352 -36.434,-1.312 -39.96,-2.83c-6.344,-2.73 11.196,-9.022 8.091,-9.423c-29.714,-3.832 -26.788,19.81 -29.551,21.218c-2.762,1.409 -14.18,-3.334 -15.348,-4.363c-1.168,-1.03 7.287,-21.446 7.287,-21.446c0,0 -12.079,-8.37 -9.013,-2.702c6.712,12.407 -12.674,38.227 -12.674,38.227" style="fill:#333;stroke:#333;stroke-width:2.71px;"/><path d="M239.101,187.076c13.137,11.279 14.644,31.101 3.366,44.237c-11.279,13.136 -31.101,14.644 -44.237,3.365c-13.136,-11.279 -14.644,-31.101 -3.365,-44.237c11.279,-13.136 31.1,-14.644 44.236,-3.365Z" style="fill:#333;stroke:#fff;stroke-width:12.5px;"/></g></g></svg>