<svg height="30" viewBox="0 0 165 131" xmlns="http://www.w3.org/2000/svg" xml:space="preserve" fill-rule="evenodd" clip-rule="evenodd" stroke-linecap="round" stroke-linejoin="round" stroke-miterlimit="1.5">
  <path d="M157.292 36.232c0-15.973-12.968-28.94-28.941-28.94H36.232c-15.973 0-28.94 12.967-28.94 28.94v57.88c0 15.973 12.967 28.941 28.94 28.941h92.119c15.973 0 28.941-12.968 28.941-28.941v-57.88Z" fill="#3a3a3a"/>
  <clipPath id="a">
    <path d="M157.292 36.232c0-15.973-12.968-28.94-28.941-28.94H36.232c-15.973 0-28.94 12.967-28.94 28.94v57.88c0 15.973 12.967 28.941 28.94 28.941h92.119c15.973 0 28.941-12.968 28.941-28.941v-57.88Z"/>
  </clipPath>
  <g clip-path="url(#a)">
    <path d="M147.9 34.767c12.122-11.572 12.568-30.809.996-42.93L85.453-74.621c-11.572-12.122-30.809-12.568-42.93-.996L-1.404-33.683C-13.525-22.111-13.972-2.875-2.4 9.247l63.444 66.458c11.572 12.121 30.808 12.568 42.93.996L147.9 34.767Z" fill="none" stroke="#fff" stroke-width="12.5"/>
  </g>
  <path d="M157.292 36.232c0-15.973-12.968-28.94-28.941-28.94H36.232c-15.973 0-28.94 12.967-28.94 28.94v57.88c0 15.973 12.967 28.941 28.94 28.941h92.119c15.973 0 28.941-12.968 28.941-28.941v-57.88Z" fill="none" stroke="#fff" stroke-width="14.58"/>
</svg>