<?xml version="1.0" encoding="UTF-8" standalone="no"?><!DOCTYPE svg PUBLIC "-//W3C//DTD SVG 1.1//EN" "http://www.w3.org/Graphics/SVG/1.1/DTD/svg11.dtd"><svg height="30px" viewBox="0 0 165 131" version="1.1" xmlns="http://www.w3.org/2000/svg" xmlns:xlink="http://www.w3.org/1999/xlink" xml:space="preserve" style="fill-rule:evenodd;clip-rule:evenodd;stroke-linecap:round;stroke-linejoin:round;stroke-miterlimit:1.5;"><path d="M157.292,36.232c-0,-15.973 -12.968,-28.94 -28.941,-28.94l-92.119,-0c-15.973,-0 -28.94,12.967 -28.94,28.94l-0,57.88c-0,15.973 12.967,28.941 28.94,28.941l92.119,-0c15.973,-0 28.941,-12.968 28.941,-28.941l-0,-57.88Z" style="fill:#3a3a3a;"/><clipPath id="_clip1"><path d="M157.292,36.232c-0,-15.973 -12.968,-28.94 -28.941,-28.94l-92.119,-0c-15.973,-0 -28.94,12.967 -28.94,28.94l-0,57.88c-0,15.973 12.967,28.941 28.94,28.941l92.119,-0c15.973,-0 28.941,-12.968 28.941,-28.941l-0,-57.88Z"/></clipPath><g clip-path="url(#_clip1)"><path d="M147.9,34.767c12.122,-11.572 12.568,-30.809 0.996,-42.93l-63.443,-66.458c-11.572,-12.122 -30.809,-12.568 -42.93,-0.996l-43.927,41.934c-12.121,11.572 -12.568,30.808 -0.996,42.93l63.444,66.458c11.572,12.121 30.808,12.568 42.93,0.996l43.926,-41.934Z" style="fill:none;stroke:#fff;stroke-width:12.5px;"/></g><path d="M157.292,36.232c-0,-15.973 -12.968,-28.94 -28.941,-28.94l-92.119,-0c-15.973,-0 -28.94,12.967 -28.94,28.94l-0,57.88c-0,15.973 12.967,28.941 28.94,28.941l92.119,-0c15.973,-0 28.941,-12.968 28.941,-28.941l-0,-57.88Z" style="fill:none;stroke:#fff;stroke-width:14.58px;"/></svg>