<?xml version="1.0" encoding="UTF-8" standalone="no"?><!DOCTYPE svg PUBLIC "-//W3C//DTD SVG 1.1//EN" "http://www.w3.org/Graphics/SVG/1.1/DTD/svg11.dtd"><svg height="30px" viewBox="0 0 87 102" version="1.1" xmlns="http://www.w3.org/2000/svg" xmlns:xlink="http://www.w3.org/1999/xlink" xml:space="preserve" style="fill-rule:evenodd;clip-rule:evenodd;stroke-linejoin:round;stroke-miterlimit:2;"><path d="M30.437,99.555l-23.365,-13.746c-6.448,-3.794 -8.943,-11.532 -5.567,-17.269l37.035,-62.952c3.376,-5.737 11.351,-7.315 17.799,-3.522l23.366,13.746c6.448,3.794 8.942,11.532 5.567,17.269l-37.036,62.952c-3.375,5.737 -11.351,7.315 -17.799,3.522Zm-4.887,-18.424c2.687,1.581 3.726,4.805 2.32,7.196c-1.407,2.39 -4.73,3.048 -7.417,1.467c-2.686,-1.58 -3.726,-4.805 -2.319,-7.195c1.406,-2.391 4.729,-3.048 7.416,-1.468Zm55.827,-50.341l-38.293,-22.529l-34.627,57.372l38.943,22.911l33.977,-57.754Zm-6.5,-11.598l-19.147,-11.265l-0.679,1.155l19.147,11.265l0.679,-1.155Z" style="fill:#fff;"/></svg>