<svg height="30" viewBox="0 0 87 102" xmlns="http://www.w3.org/2000/svg" xml:space="preserve" fill-rule="evenodd" clip-rule="evenodd" stroke-linejoin="round" stroke-miterlimit="2">
  <path d="M30.437 99.555 7.072 85.809C.624 82.015-1.871 74.277 1.505 68.54L38.54 5.588c3.376-5.737 11.351-7.315 17.799-3.522l23.366 13.746c6.448 3.794 8.942 11.532 5.567 17.269L48.236 96.033c-3.375 5.737-11.351 7.315-17.799 3.522ZM25.55 81.131c2.687 1.581 3.726 4.805 2.32 7.196-1.407 2.39-4.73 3.048-7.417 1.467-2.686-1.58-3.726-4.805-2.319-7.195 1.406-2.391 4.729-3.048 7.416-1.468ZM81.377 30.79 43.084 8.261 8.457 65.633 47.4 88.544 81.377 30.79Zm-6.5-11.598L55.73 7.927l-.679 1.155 19.147 11.265.679-1.155Z" fill="#fff"/>
</svg>