<?xml version="1.0" encoding="UTF-8" standalone="no"?><!DOCTYPE svg PUBLIC "-//W3C//DTD SVG 1.1//EN" "http://www.w3.org/Graphics/SVG/1.1/DTD/svg11.dtd"><svg width="100%" height="100%" viewBox="0 0 350 312" version="1.1" xmlns="http://www.w3.org/2000/svg" xmlns:xlink="http://www.w3.org/1999/xlink" xml:space="preserve" style="fill-rule:evenodd;clip-rule:evenodd;stroke-linecap:round;stroke-linejoin:round;stroke-miterlimit:1.5;"><g><circle cx="143.646" cy="143.646" r="141.667" style="fill:none;stroke:#333;stroke-width:3.96px;"/><path d="M107.757,28.24c11.34,-3.527 23.394,-5.428 35.889,-5.428c66.69,0 120.833,54.144 120.833,120.834c0,66.69 -54.143,120.833 -120.833,120.833c-66.69,0 -120.834,-54.143 -120.834,-120.833" style="fill:none;stroke:#333;stroke-width:3.96px;"/><g><path d="M109.034,237.241c16.019,10.032 20.88,31.182 10.848,47.201c-10.031,16.019 -31.181,20.88 -47.2,10.848c-16.019,-10.032 -20.88,-31.182 -10.849,-47.201c10.032,-16.019 31.182,-20.88 47.201,-10.848Z" style="fill:#333;stroke:#fff;stroke-width:12.5px;"/><path d="M165.989,242.462c16.019,10.031 20.88,31.181 10.848,47.2c-10.032,16.019 -31.182,20.88 -47.201,10.849c-16.019,-10.032 -20.88,-31.182 -10.848,-47.201c10.032,-16.019 31.182,-20.88 47.201,-10.848Z" style="fill:#333;stroke:#fff;stroke-width:12.5px;"/><path d="M135.305,202.479c16.019,10.032 20.88,31.182 10.848,47.201c-10.031,16.019 -31.181,20.88 -47.2,10.848c-16.019,-10.032 -20.88,-31.181 -10.849,-47.201c10.032,-16.019 31.182,-20.88 47.201,-10.848Z" style="fill:#333;stroke:#fff;stroke-width:12.5px;"/><path d="M218.41,230.376c16.019,10.032 20.88,31.182 10.848,47.201c-10.031,16.019 -31.181,20.88 -47.2,10.848c-16.019,-10.032 -20.88,-31.181 -10.849,-47.201c10.032,-16.019 31.182,-20.88 47.201,-10.848Z" style="fill:#333;stroke:#fff;stroke-width:12.5px;"/><path d="M156.126,151.364c16.019,10.032 20.88,31.182 10.848,47.201c-10.032,16.019 -31.182,20.88 -47.201,10.848c-16.019,-10.031 -20.88,-31.181 -10.848,-47.2c10.032,-16.02 31.182,-20.88 47.201,-10.849Z" style="fill:#333;stroke:#fff;stroke-width:12.5px;"/><path d="M172.167,110.842c15.445,9.673 20.132,30.065 10.46,45.511c-9.673,15.445 -30.065,20.132 -45.511,10.459c-15.445,-9.672 -20.132,-30.065 -10.459,-45.51c9.672,-15.445 30.065,-20.132 45.51,-10.46Z" style="fill:#333;stroke:#fff;stroke-width:12.5px;"/><path d="M264.915,198.397c15.445,9.672 20.132,30.065 10.46,45.51c-9.673,15.446 -30.065,20.133 -45.511,10.46c-15.445,-9.672 -20.132,-30.065 -10.459,-45.51c9.672,-15.446 30.065,-20.133 45.51,-10.46Z" style="fill:#333;stroke:#fff;stroke-width:12.5px;"/><path d="M192.691,182.966c16.019,10.032 20.88,31.182 10.849,47.201c-10.032,16.019 -31.182,20.88 -47.201,10.848c-16.019,-10.032 -20.88,-31.182 -10.848,-47.201c10.031,-16.019 31.181,-20.88 47.2,-10.848Z" style="fill:#333;stroke:#fff;stroke-width:12.5px;"/><path d="M232.519,147.065c-0,0 7.854,-15.001 9.556,-14.773c1.703,0.227 13.695,-1.296 14.522,2.023c0.826,3.319 -18.959,16.763 5.732,38.725c2.58,2.294 -4.874,-16.858 1.99,-13.553c3.814,1.836 4.062,29.088 31.271,31.215c10.368,0.811 -4.597,-1.111 -3.333,-11.139c1.265,-10.029 7.832,-11.067 5.883,-18.307c-1.95,-7.24 6.531,16.936 22.754,11.86c4.469,-1.398 -5.638,-3.286 0.918,-6.255c3.033,-1.374 26.493,-3.197 26.265,-4.699c-3.264,-21.607 -16.777,-16.451 -16.959,-20.567c-0.317,-7.191 5.852,-1.397 3.356,-5.359c-9.063,-14.381 -31.192,-1.469 -25.015,-5.718c6.178,-4.25 1.85,-9.297 7.388,-17.753c5.538,-8.456 18.178,-0.219 9.758,-6.322c-22.097,-16.018 -39.951,4.573 -44.046,3.499c-7.369,-1.933 10.722,-11.685 7.271,-11.61c-33.038,0.718 -25.95,26.019 -28.731,28.01c-2.781,1.991 -16.014,-1.299 -17.457,-2.229c-1.444,-0.931 4.413,-24.589 4.413,-24.589c-0,-0 -14.553,-7.138 -10.275,-1.462c9.364,12.424 -7.523,43.778 -7.523,43.778" style="fill:#333;stroke:#333;stroke-width:2.71px;"/><path d="M231.155,144.053c16.184,10.135 21.095,31.504 10.96,47.689c-10.136,16.184 -31.504,21.095 -47.689,10.96c-16.185,-10.135 -21.096,-31.504 -10.96,-47.689c10.135,-16.185 31.504,-21.096 47.689,-10.96Z" style="fill:#333;stroke:#fff;stroke-width:12.5px;"/></g></g></svg>