<?xml version="1.0" encoding="UTF-8" standalone="no"?><!DOCTYPE svg PUBLIC "-//W3C//DTD SVG 1.1//EN" "http://www.w3.org/Graphics/SVG/1.1/DTD/svg11.dtd"><svg width="100%" height="100%" viewBox="0 0 1182 784" version="1.1" xmlns="http://www.w3.org/2000/svg" xmlns:xlink="http://www.w3.org/1999/xlink" xml:space="preserve" style="fill-rule:evenodd;clip-rule:evenodd;stroke-linejoin:round;stroke-miterlimit:2;"><path d="M157.799,537.263l-0,-11.198c21.765,1.069 33.071,1.632 34.027,1.689c5.568,-0.225 13.05,-0.62 22.441,-1.182c9.453,-0.507 16.935,-0.901 22.39,-1.127c10.687,-0 20.583,1.858 29.699,5.63c9.109,3.71 16.31,9.109 21.709,16.141c5.399,7.033 8.101,15.297 8.101,24.806c0,7.82 -2.026,15.522 -6.074,23.06c-3.992,7.539 -10.067,13.22 -18.225,17.042c-0.562,-0 -1.182,1.126 -1.97,3.378c1.07,2.246 1.915,3.316 2.646,3.316c13.951,2.477 24.018,8.946 30.261,19.294c6.188,10.347 9.503,21.714 9.898,34.09c-0,12.598 -2.359,23.678 -7.088,33.126c-4.724,9.452 -11.812,16.816 -21.203,22.052c-9.396,5.287 -20.871,8.04 -34.534,8.264c-7.82,0 -18.061,-1.237 -30.712,-3.709c-12.6,-2.477 -22.953,-3.716 -31.048,-3.716c-5.067,0 -11.311,0.395 -18.788,1.07c-7.426,0.675 -11.304,1.013 -11.53,1.013l-0,-11.867l17.886,-0c10.742,-0 16.141,-5.681 16.141,-17.155l0,-114.744c0,-25.425 -3.034,-40.728 -9.058,-45.901c-1.684,-2.252 -5.624,-3.372 -11.755,-3.372l-13.214,0Zm55.906,89.994l-0,74.023c-0,7.2 3.152,12.768 9.396,16.704c6.3,3.935 14.063,5.906 23.399,5.906c8.213,-0.282 15.526,-2.026 21.826,-5.343c6.3,-3.26 11.192,-8.158 14.734,-14.739c3.546,-6.581 5.343,-14.678 5.343,-24.244c-0.226,-10.74 -2.697,-20.019 -7.426,-27.951c-4.724,-7.933 -11.08,-13.951 -19.12,-18.113c-7.989,-4.159 -16.822,-6.243 -26.551,-6.243l-21.601,-0Zm-0,-87.298l-0,75.543l18.899,-0c10.467,-0 19.238,-3.885 26.494,-11.587c7.202,-7.707 10.799,-17.21 10.799,-28.521c-0.619,-12.318 -4.836,-21.315 -12.769,-26.939c-7.926,-5.681 -17.773,-8.496 -29.528,-8.496l-13.895,0Z" style="fill:#333;"/><path d="M330.932,679.564c0.281,-20.92 2.471,-39.538 6.693,-55.91c4.161,-16.366 12.093,-29.924 23.736,-40.665c11.643,-10.742 27.953,-16.31 48.936,-16.76c8.327,-0 15.183,3.371 20.476,10.178c5.343,6.751 9.222,15.302 11.587,25.595c2.358,10.235 3.709,20.927 3.99,32.005c0,18.506 -2.308,35.21 -6.862,50.231c-4.611,15.016 -12.206,27.108 -22.778,36.279c-10.63,9.167 -24.468,13.776 -41.567,13.776l-6.412,0c-8.496,-1.007 -15.471,-3.034 -20.87,-6.186c-5.399,-3.148 -9.56,-8.49 -12.544,-16.086c-2.922,-7.594 -4.385,-18.449 -4.385,-32.457Zm25.931,-15.127c-0,10.968 0.563,20.471 1.683,28.403c1.126,7.989 3.828,14.908 8.101,20.702c4.33,5.85 10.743,9.052 19.295,9.672c13.275,0 22.722,-7.313 28.346,-21.878c5.624,-14.627 8.439,-32.174 8.439,-52.764l0,-4.779c0,-17.38 -2.702,-32.677 -8.045,-45.952c-5.342,-13.219 -14.17,-19.857 -26.432,-19.857c-7.483,0.395 -13.557,5.568 -18.174,15.578c-4.666,10.015 -7.926,21.602 -9.841,34.709c-1.915,13.163 -3.034,25.2 -3.372,36.166" style="fill:#333;"/><path d="M461.203,700.548c0.845,-12.769 1.521,-29.36 2.14,-49.78c0.613,-20.42 1.345,-37.011 2.247,-49.78c1.35,-17.042 2.983,-32.175 4.892,-45.445c1.914,-13.276 4.222,-26.551 6.918,-39.939c2.703,-13.331 5.85,-27.671 9.397,-43.085c3.541,-15.354 6.863,-30.262 9.841,-44.664l3.378,-15.24l36.787,0l-0,10.462c-0.338,0.112 -1.634,0.675 -3.942,1.632c-2.246,0.956 -4.892,3.26 -7.927,6.806c-3.04,3.598 -6.299,9.672 -9.79,18.168c-3.484,8.546 -6.582,19.462 -9.334,32.789c-2.646,14.12 -4.673,25.593 -6.132,34.314c-1.463,8.716 -2.814,18.056 -4.11,28.066c-1.233,9.959 -2.246,19.069 -2.978,27.282c-0.788,8.215 -1.633,19.351 -2.702,33.521l-3.71,55.404c0.282,-0.281 2.19,-3.429 5.737,-9.391c3.541,-6.018 7.369,-12.374 11.53,-19.181c4.161,-6.862 8.552,-13.613 13.163,-20.363c7.482,-11.08 20.25,-25.312 38.137,-42.861l34.027,-1.627l0,49.273c0,25.645 -6.806,50 -20.475,73.123c-13.665,23.06 -31.777,45.95 -54.448,68.56l-23.961,24.976l-9.785,-11.137c12.657,-8.772 23.961,-18.9 33.915,-30.373c9.902,-11.474 18.393,-24.018 25.424,-37.631c7.09,-13.608 12.432,-27.84 16.148,-42.805c3.654,-14.958 5.512,-30.092 5.512,-45.5c-0,-12.488 -1.465,-20.815 -4.392,-24.975c-0.563,-0.844 -1.402,-1.295 -2.36,-1.295c-4.835,-0 -12.881,6.919 -24.13,20.757c-11.198,13.834 -21.826,30.43 -31.78,49.775c-9.903,19.35 -16.034,37.124 -18.337,53.326l-1.971,14.509l-19.632,6.75c1.24,-11.811 2.14,-23.285 2.703,-34.421" style="fill:#333;"/><path d="M701.27,672.871l10.461,1.407c0,4.668 -1.402,11.531 -4.161,20.534c-2.815,9.052 -8.495,17.66 -17.154,25.874c-8.665,8.208 -20.927,12.319 -36.786,12.319c-11.474,-0 -20.926,-2.984 -28.352,-9.003c-7.421,-5.962 -12.826,-14.008 -16.198,-24.017c-3.372,-10.01 -5.061,-21.208 -5.061,-33.471c0.676,-12.988 2.083,-25.08 4.272,-36.392c2.196,-11.304 5.625,-21.82 10.18,-31.549c4.616,-9.79 10.691,-17.61 18.286,-23.573c7.533,-5.962 16.648,-9.109 27.333,-9.447c9.284,-0 16.761,1.858 22.498,5.624c5.68,3.767 9.79,8.89 12.262,15.302c2.477,6.407 3.716,13.72 3.716,21.935c-0,7.032 -1.351,16.479 -4.054,28.346c-22.103,7.37 -45.445,12.432 -69.913,15.246c-0.112,0 -0.563,3.936 -1.294,11.812c1.237,34.534 13.105,52.308 35.434,53.321c6.863,0 13.276,-1.909 19.238,-5.793c5.905,-3.879 10.628,-9.052 14.063,-15.466c3.485,-6.468 5.23,-13.218 5.23,-20.306l-0,-2.703Zm-71.32,-31.775l29.755,-4.336c7.031,-1.402 12.543,-5.004 16.422,-10.797c3.88,-5.85 5.85,-12.6 5.85,-20.308c-0,-8.716 -1.07,-16.084 -3.26,-22.047c-2.196,-5.962 -7.032,-8.945 -14.627,-8.945c-11.304,0.281 -19.8,8.044 -25.424,23.346c-5.681,15.297 -8.772,29.079 -9.391,41.454c0.281,0.394 0.45,0.732 0.563,1.013c0.056,0.338 0.112,0.563 0.112,0.62" style="fill:#333;"/><path d="M747.785,588.445l-23.624,4.779l-0,-13.157c16.761,0 33.639,-4.167 50.681,-12.431l-8.495,103.89c20.926,-38.701 44.887,-73.291 71.945,-103.89l20.921,0l-6.469,103.89c10.41,-20.196 21.208,-38.87 32.345,-55.968c11.192,-17.099 23.454,-33.075 36.898,-47.922l26.269,0c-3.546,20.64 -6.412,43.48 -8.721,68.562c-2.251,25.03 -3.372,46.745 -3.372,65.082c-0,1.407 0.057,3.372 0.169,5.849c0.112,2.472 0.169,4.217 0.169,5.23l-0,2.647l13.833,-4.054l1.294,12.262l-43.48,12.43l12.432,-149.165c-8.435,9.223 -16.648,19.57 -24.694,31.043c-8.039,11.536 -15.465,23.574 -22.329,36.23c-6.805,12.656 -12.881,25.7 -18.11,39.088c-5.23,13.445 -9.284,26.326 -12.15,38.757l-18.224,-0l9.166,-141.745c-19.013,21.095 -35.098,44.1 -48.26,68.961c-13.164,24.919 -21.71,48.935 -25.65,72.108l-20.921,0l8.377,-142.476Z" style="fill:#333;"/><path d="M992.8,589.852l-29.36,5.343l-0,-12.093c12.882,-1.464 32.118,-6.413 57.713,-14.847l-11.756,163.287l-25.762,5.454c6.131,-36.56 9.165,-77.508 9.165,-122.846l0,-24.298Zm-5.06,-82.406c-0,-5.737 1.688,-11.023 4.947,-15.746c3.323,-4.78 7.651,-7.145 12.995,-7.145c5.117,0 9.678,2.027 13.613,6.131c3.935,4.105 5.905,8.834 5.905,14.121c0,5.792 -1.914,10.909 -5.68,15.351c-3.829,4.449 -8.44,6.751 -13.838,6.921c-0,-0.114 -0.113,-0.17 -0.282,-0.226c-0.168,-0.057 -0.282,-0.112 -0.394,-0.112c-4.554,-0 -8.49,-1.966 -11.812,-5.907c-3.259,-3.879 -5.117,-8.377 -5.454,-13.388" style="fill:#333;"/><path d="M1159.86,713.148c6.355,-2.084 12.098,-3.491 17.216,-4.33l4.048,7.702c-11.305,2.477 -19.294,4.56 -23.905,6.3c-4.667,1.746 -12.093,5.399 -22.329,10.86c-0.45,0.444 -1.351,0.613 -2.702,0.613c-0.9,0 -1.295,-1.288 -1.295,-3.991c2.477,-15.578 4.111,-26.945 4.892,-34.084c0.733,-7.144 1.071,-15.583 1.071,-25.312l-0,-17.211l-28.967,46.853c-5.68,9.391 -12.768,17.154 -21.377,23.286c-8.602,6.13 -17.38,9.171 -26.263,9.171c-12.769,-0.619 -19.181,-12.769 -19.181,-36.505c0.731,-14.007 4.272,-28.746 10.741,-44.156c6.469,-15.47 14.403,-29.698 23.792,-42.805c9.454,-13.106 19.069,-23.735 28.916,-31.836c9.841,-8.103 18.167,-12.15 24.968,-12.15c2.027,-0 4.336,0.45 6.864,1.351c2.533,0.901 4.672,1.351 6.3,1.351l23.961,-2.702c-1.176,14.176 -2.979,33.69 -5.399,58.439c-2.415,24.75 -3.992,41.29 -4.724,49.61c-0.731,8.327 -1.183,16.204 -1.407,23.68c0.676,10.58 2.251,15.866 4.78,15.866Zm-26.997,-133.756c-1.013,-0.676 -2.251,-1.013 -3.715,-1.013c-4.836,-0 -10.798,3.146 -17.83,9.39c-7.082,6.299 -14.058,14.626 -21.034,25.03c-6.918,10.41 -12.825,21.772 -17.605,34.146c-4.785,12.374 -7.537,24.299 -8.27,35.829c0,1.802 -0.281,3.373 -0.788,4.78c1.071,13.67 6.131,20.532 15.246,20.532c7.476,-0.224 15.127,-5.117 22.891,-14.626c7.82,-9.56 14.852,-21.089 21.152,-34.591c6.294,-13.5 11.192,-26.156 14.621,-37.912c2.027,-5.905 3.04,-13.669 3.04,-23.342c0,-9.846 -2.59,-15.921 -7.708,-18.223" style="fill:#333;"/><path d="M9.484,27.156c0,-0 -54.557,326.041 98.033,331.761l13.639,316.032c0,0 -108.262,12.869 -114.229,57.2c0,-0 -6.82,70.071 231.017,34.32c-0,0 -179.018,7.15 -186.689,-27.17c-0,0 -19.608,-32.89 80.984,-48.62l-7.673,-361.792c0,-0 -127.017,-0 -115.082,-301.731" style="fill:#1a1a18;"/><clipPath id="_clip1"><path d="M9.484,27.156c0,-0 -54.557,326.041 98.033,331.761l13.639,316.032c0,0 -108.262,12.869 -114.229,57.2c0,-0 -6.82,70.071 231.017,34.32c-0,0 -179.018,7.15 -186.689,-27.17c-0,0 -19.608,-32.89 80.984,-48.62l-7.673,-361.792c0,-0 -127.017,-0 -115.082,-301.731"/></clipPath><g clip-path="url(#_clip1)"><ellipse cx="45.936" cy="190.051" rx="122.5" ry="195.5" style="fill:#333;"/></g><path d="M151.845,360.347c156.852,-54.34 81.836,-328.902 81.836,-328.902c35.804,260.262 -80.131,297.442 -80.131,297.442l-1.705,31.46Z" style="fill:#333;"/><path d="M24.828,34.305c-0,-0 31.541,21.451 104.854,24.31c-0,0 84.393,0 88.655,-31.459c0,-0 16.197,-40.041 -138.952,-22.881c0,0 119.345,0 112.525,24.31c0,-0 -18.753,38.61 -166.229,5.72l-0.853,-0Z" style="fill:#868786;"/><path d="M330.537,158.952l-41.47,7.55l-0,-17.081c18.191,-2.066 45.361,-9.059 81.511,-20.972l-16.603,230.626l-36.386,7.707c8.658,-51.638 12.948,-109.475 12.948,-173.509l0,-34.321Zm-7.15,-116.388c0,-8.101 2.382,-15.567 6.992,-22.243c4.684,-6.75 10.805,-10.089 18.348,-10.089c7.235,-0 13.67,2.86 19.227,8.658c5.563,5.799 8.344,12.476 8.344,19.942c-0,8.186 -2.702,15.415 -8.023,21.686c-5.405,6.278 -11.919,9.538 -19.548,9.774c0,-0.157 -0.157,-0.236 -0.394,-0.315c-0.236,-0.08 -0.399,-0.163 -0.556,-0.163c-6.436,-0 -11.998,-2.776 -16.682,-8.339c-4.611,-5.483 -7.23,-11.839 -7.708,-18.911Zm224.511,323.346l-7.55,-5.799c11.125,-40.204 17.24,-105.027 18.512,-194.482c-22.008,26.214 -37.023,44.33 -45.045,54.42c-7.944,10.009 -16.446,22.165 -25.261,36.544c-8.901,14.3 -16.446,29.872 -22.565,46.791c-6.115,16.845 -10.405,35.434 -12.871,55.769l-29.078,-0l11.36,-202.189l-37.1,8.665l-0,-18.674c28.6,-0 54.34,-7.387 77.141,-22.323l-16.202,151.502c9.851,-18.511 20.098,-35.592 30.743,-51.322c10.647,-15.652 22.166,-30.982 34.715,-45.997c12.556,-15.015 27.092,-31.303 43.694,-48.936l26.22,0l-11.441,202.104l34.321,-4.29l-0,16.688c-23.753,0.873 -46.955,8.022 -69.593,21.529Zm87.309,-80.238c0.401,-29.558 3.497,-55.856 9.454,-78.972c5.877,-23.117 17.081,-42.264 33.526,-57.437c16.445,-15.179 39.483,-23.044 69.119,-23.673c11.755,-0 21.45,4.762 28.916,14.379c7.549,9.531 13.033,21.607 16.366,36.144c3.338,14.458 5.247,29.557 5.641,45.203c0,26.139 -3.254,49.735 -9.689,70.948c-6.52,21.208 -17.245,38.29 -32.175,51.238c-15.015,12.955 -34.563,19.468 -58.715,19.468l-9.053,0c-11.998,-1.429 -21.85,-4.29 -29.479,-8.742c-7.623,-4.449 -13.5,-11.992 -17.712,-22.718c-4.131,-10.725 -6.199,-26.061 -6.199,-45.838Zm36.624,-21.372c0,15.487 0.794,28.915 2.387,40.119c1.587,11.282 5.399,21.05 11.44,29.236c6.114,8.259 15.173,12.792 27.248,13.664c18.749,0 32.097,-10.331 40.041,-30.902c7.944,-20.656 11.914,-45.445 11.914,-74.524l-0,-6.75c-0,-24.553 -3.813,-46.161 -11.357,-64.909c-7.549,-18.668 -20.019,-28.041 -37.343,-28.041c-10.562,0.556 -19.148,7.864 -25.661,22.007c-6.593,14.137 -11.198,30.502 -13.901,49.014c-2.702,18.59 -4.289,35.592 -4.768,51.086" style="fill:#333;"/><path d="M107.517,358.917l13.639,316.032c0,0 -108.262,12.869 -114.229,57.2c0,-0 -6.82,70.071 231.017,34.32c-0,0 -179.018,7.15 -186.689,-27.17c-0,0 -19.608,-32.89 80.984,-48.62l-7.673,-361.792l-17.049,30.03Z" style="fill:#868786;"/></svg>